<?xml version="1.0" standalone="no"?>
<!DOCTYPE svg PUBLIC "-//W3C//DTD SVG 20010904//EN"
 "http://www.w3.org/TR/2001/REC-SVG-20010904/DTD/svg10.dtd">
<svg version="1.0" xmlns="http://www.w3.org/2000/svg"
 width="500.000000pt" height="500.000000pt" viewBox="0 0 500.000000 500.000000"
 preserveAspectRatio="xMidYMid meet">

<g transform="translate(0.000000,500.000000) scale(0.100000,-0.100000)"
fill="#000000" stroke="none">
<path d="M1600 3059 c0 -57 4 -88 10 -84 6 3 10 42 10 85 l0 79 48 4 c46 3 46
3 -10 5 l-58 2 0 -91z"/>
<path d="M1860 3066 c0 -47 5 -88 10 -91 6 -4 10 27 10 84 0 54 -4 91 -10 91
-6 0 -10 -35 -10 -84z"/>
<path d="M2060 3126 c0 -16 3 -26 7 -22 4 3 38 -24 75 -61 l68 -67 -2 89 c-2
86 -2 87 -5 21 l-4 -69 -69 68 c-68 67 -70 69 -70 41z"/>
<path d="M2422 3125 c-16 -35 -15 -43 2 -19 14 18 15 17 30 -18 21 -49 21 -48
-20 -48 -32 0 -35 2 -29 23 5 20 5 20 -9 -3 -9 -14 -15 -27 -16 -30 0 -3 22
-3 49 -2 47 4 50 2 66 -28 9 -18 19 -29 22 -26 7 7 -67 176 -77 176 -4 0 -12
-11 -18 -25z"/>
<path d="M2672 3065 c2 -86 2 -87 5 -21 l4 69 69 -68 c68 -67 70 -69 70 -41 0
16 -3 26 -7 22 -4 -3 -38 24 -75 61 l-68 67 2 -89z"/>
<path d="M2995 3125 c-54 -53 -18 -143 60 -149 28 -3 32 -2 13 3 -60 13 -90
67 -68 120 6 16 21 33 33 39 19 9 19 11 4 11 -10 1 -29 -10 -42 -24z"/>
<path d="M3106 3135 c10 -8 24 -14 29 -14 6 0 1 6 -9 14 -11 8 -24 15 -30 15
-5 0 -1 -7 10 -15z"/>
<path d="M3285 3062 l1 -87 54 -1 c55 -2 55 -2 10 5 l-45 6 -2 77 -2 77 52 4
52 3 -60 2 -60 2 0 -88z"/>
<path d="M2366 2995 c-9 -26 -7 -32 5 -12 6 10 9 21 6 23 -2 3 -7 -2 -11 -11z"/>
<path d="M2243 2687 c-58 -67 -68 -93 -68 -192 0 -81 3 -95 30 -143 50 -92
129 -142 235 -150 45 -3 76 0 103 11 40 17 38 11 38 127 0 33 0 72 0 86 l-1
26 -34 -30 c-45 -39 -66 -45 -115 -32 -76 20 -141 130 -150 254 l-6 79 -32
-36z"/>
<path d="M3148 2713 c-3 -4 -5 -39 -6 -76 0 -38 -2 -71 -5 -74 -3 -2 -18 2
-34 10 -36 18 -107 33 -80 17 23 -15 47 -63 47 -95 0 -41 -26 -81 -65 -99 -52
-25 -87 -14 -136 45 l-42 48 -53 -72 c-30 -39 -54 -76 -54 -80 0 -18 61 -69
76 -63 20 8 54 -11 54 -29 0 -23 55 -45 114 -45 111 0 216 64 269 164 18 33
22 58 22 131 0 80 -3 95 -27 135 -29 50 -73 96 -80 83z"/>
<path d="M1895 2695 c-22 -8 -56 -32 -76 -53 -77 -81 -77 -249 -2 -333 40 -44
87 -62 163 -62 71 0 100 10 100 33 0 17 -7 18 -72 14 -92 -7 -132 12 -168 76
-30 55 -34 155 -7 207 39 73 126 107 205 80 40 -14 43 -14 53 5 13 24 10 28
-38 39 -54 12 -112 10 -158 -6z"/>
<path d="M2633 2677 c-62 -116 -65 -127 -48 -153 l16 -25 18 23 c90 120 93
126 76 152 -25 38 -43 39 -62 3z"/>
<path d="M3380 2475 l0 -225 125 0 c118 0 125 1 125 20 0 18 -8 20 -97 22
l-98 3 -3 203 -2 202 -25 0 -25 0 0 -225z"/>
<path d="M1403 2669 c-42 -12 -63 -44 -63 -96 0 -53 19 -74 97 -109 32 -13 65
-32 75 -41 24 -22 23 -58 -3 -84 -20 -20 -29 -21 -100 -16 -64 4 -79 2 -79 -9
0 -20 42 -34 101 -34 86 0 139 42 139 110 0 45 -37 83 -102 105 -59 21 -88 48
-88 85 0 51 59 73 137 51 25 -7 33 -6 38 6 7 20 4 23 -42 34 -46 10 -68 10
-110 -2z"/>
<path d="M798 1713 c20 -4 22 -10 22 -64 0 -33 4 -59 10 -59 6 0 10 26 10 59
0 54 2 60 23 64 12 2 -3 4 -33 4 -30 0 -45 -2 -32 -4z"/>
<path d="M1700 1645 c0 -46 3 -55 18 -54 10 0 12 3 5 6 -15 5 -18 70 -4 75 5
2 3 9 -5 16 -12 11 -14 4 -14 -43z"/>
<path d="M974 1640 c1 -43 2 -45 34 -48 l32 -3 -2 48 -1 48 -4 -43 c-4 -38 -7
-43 -26 -40 -17 2 -23 12 -28 43 l-7 40 2 -45z"/>
<path d="M1254 1656 c-10 -41 4 -66 37 -66 16 0 29 4 29 8 0 4 -12 8 -27 7
-14 0 -28 6 -30 13 -3 8 7 12 31 12 39 0 41 2 26 31 -16 28 -58 25 -66 -5z
m56 -1 c0 -9 -9 -15 -25 -15 -24 0 -32 10 -18 23 12 13 43 7 43 -8z"/>
<path d="M1420 1675 c0 -6 6 -17 12 -23 10 -10 10 -17 0 -32 -17 -28 -14 -39
4 -15 15 20 15 20 30 1 7 -11 16 -17 19 -14 3 3 -1 11 -10 18 -8 7 -15 18 -15
25 0 7 7 18 15 25 9 7 13 15 10 18 -3 3 -12 -3 -19 -14 -15 -19 -15 -19 -30 1
-8 11 -16 15 -16 10z"/>
<path d="M1580 1635 c0 -25 5 -45 10 -45 6 0 10 20 10 45 0 25 -4 45 -10 45
-5 0 -10 -20 -10 -45z"/>
<path d="M1824 1656 c-10 -41 4 -66 36 -66 32 0 46 25 36 66 -5 19 -13 24 -36
24 -23 0 -31 -5 -36 -24z m61 -21 c0 -25 -4 -30 -25 -30 -16 0 -26 6 -28 18
-6 30 6 49 30 45 18 -2 23 -9 23 -33z"/>
<path d="M2109 1659 c-17 -33 3 -69 38 -68 l28 2 -27 4 c-24 4 -28 9 -28 38 0
29 4 34 28 38 l27 4 -27 2 c-19 1 -31 -6 -39 -20z"/>
<path d="M2277 1674 c-4 -4 -7 -12 -7 -18 0 -6 4 -5 9 2 15 25 46 10 46 -23 0
-33 -30 -48 -47 -23 -8 10 -9 10 -5 -2 2 -9 15 -15 33 -15 27 0 29 2 29 40 0
35 -3 40 -25 43 -14 2 -29 0 -33 -4z"/>
<path d="M2442 1633 l1 -48 4 42 4 42 47 -2 c47 -2 47 -2 53 -42 l7 -40 -2 45
-1 45 -57 3 -58 3 2 -48z"/>
<path d="M2663 1635 c0 -27 2 -38 4 -22 2 15 2 37 0 50 -2 12 -4 0 -4 -28z"/>
<path d="M2774 1656 c-10 -43 -2 -61 34 -64 17 -2 32 1 32 5 0 5 -12 9 -27 8
-14 0 -28 6 -30 13 -3 8 6 12 27 12 27 0 31 3 28 23 -2 16 -11 23 -30 25 -22
3 -29 -2 -34 -22z m56 -1 c0 -9 -9 -15 -25 -15 -24 0 -32 10 -18 23 12 13 43
7 43 -8z"/>
<path d="M2942 1633 l1 -48 4 43 c4 38 7 43 26 40 17 -2 23 -12 28 -43 l7 -40
-2 45 c-1 43 -2 45 -33 48 l-33 3 2 -48z"/>
<path d="M3128 1673 c27 -5 27 -11 2 -43 -27 -35 -25 -40 18 -39 30 2 32 3 10
6 -33 5 -34 10 -8 43 27 34 25 40 -12 39 -24 -1 -27 -3 -10 -6z"/>
<path d="M3294 1671 c39 -8 45 -29 9 -33 -20 -2 -29 -9 -31 -25 -3 -20 1 -23
32 -23 33 0 36 2 36 29 0 48 -9 61 -44 60 l-31 -1 29 -7z m36 -56 c0 -9 -9
-15 -25 -15 -16 0 -25 6 -25 15 0 9 9 15 25 15 16 0 25 -6 25 -15z"/>
<path d="M3573 1673 c34 -5 36 -33 2 -33 -14 0 -25 -4 -25 -8 0 -5 14 -6 31
-4 24 4 30 1 27 -9 -3 -8 -17 -14 -31 -14 -15 1 -27 -3 -27 -7 0 -4 16 -8 35
-8 32 0 35 2 35 29 0 49 -9 61 -44 60 -30 -2 -30 -2 -3 -6z"/>
<path d="M3722 1668 c-28 -28 -10 -78 28 -78 19 0 30 -6 33 -17 3 -10 5 9 4
42 -2 56 -4 60 -27 63 -14 2 -31 -3 -38 -10z m56 -30 c-2 -23 -9 -34 -22 -36
-26 -5 -40 12 -32 42 5 19 13 26 32 26 22 0 25 -4 22 -32z"/>
<path d="M3894 1638 c1 -41 3 -43 34 -46 l32 -3 -2 48 -1 48 -4 -42 c-4 -38
-7 -43 -28 -43 -20 0 -24 6 -28 40 l-4 40 1 -42z"/>
<path d="M4063 1635 c0 -27 2 -38 4 -22 2 15 2 37 0 50 -2 12 -4 0 -4 -28z"/>
</g>
</svg>
